BBC Proms 2011, Number 6 Stravinsky's Rite of Spring
Thanks to the BBC :-)

Weber:
Oberon - overture (9 mins)

Brahms:
Concerto in A minor for Violin and Cello (32 mins)
Renaud Capuçon: violin
Gautier Capuçon: cello
Encore - Halvorsen's Pasacaglia
(Based on last movement of Handel's Harpsichord Suite in G minor)

Stravinsky:
The Rite of Spring (33 mins)

Orchestre Philharmonique de Radio France
Myung-Whun Chung conductor

Runtime: 1:40
Format: MP4 720p

Stravinsky's Rite of Spring.mp4
Format                           : MPEG-4
Format profile                   : Base Media
Codec ID                         : isom
File size                        : 1.94 GiB
Duration                         : 1h 40mn
Overall bit rate                 : 2 770 Kbps
Writing application              : Lavf52.93.0

Video
ID                               : 1
Format                           : AVC
Format/Info                      : Advanced Video Codec
Format profile                   : High@L4.1
Format settings, CABAC           : Yes
Format settings, ReFrames        : 6 frames
Codec ID                         : avc1
Codec ID/Info                    : Advanced Video Coding
Duration                         : 1h 40mn
Bit rate mode                    : Variable
Bit rate                         : 2 670 Kbps
Maximum bit rate                 : 3 500 Kbps
Width                            : 1 280 pixels
Height                           : 720 pixels
Display aspect ratio             : 16:9
Frame rate mode                  : Constant
Frame rate                       : 25.000 fps
Standard                         : PAL
Color space                      : YUV
Chroma subsampling               : 4:2:0
Bit depth                        : 8 bits
Scan type                        : Progressive
Bits/(Pixel*Frame)               : 0.116
Stream size                      : 1.87 GiB (96%)

Audio
ID                               : 2
Format                           : AAC
Format/Info                      : Advanced Audio Codec
Format profile                   : HE-AAC / LC
Codec ID                         : 40
Duration                         : 1h 40mn
Bit rate mode                    : Variable
Bit rate                         : 96.0 Kbps
Channel(s)                       : 2 channels
Channel positions                : Front: L R
Sampling rate                    : 48.0 KHz / 24.0 KHz
Compression mode                 : Lossy
Stream size                      : 68.1 MiB (3%)
